<mxfile host="65bd71144e">
    <diagram id="Q2BgrTvw5muccqVEsE5E" name="Top Level">
        <mxGraphModel dx="1300" dy="2060" grid="1" gridSize="10" guides="1" tooltips="1" connect="1" arrows="1" fold="1" page="1" pageScale="1" pageWidth="827" pageHeight="1169" math="0" shadow="0">
            <root>
                <mxCell id="0"/>
                <mxCell id="1" parent="0"/>
                <mxCell id="4" value="" style="rounded=0;whiteSpace=wrap;html=1;fontStyle=1;movable=0;resizable=0;rotatable=0;deletable=0;editable=0;connectable=0;" vertex="1" parent="1">
                    <mxGeometry x="165" y="-90" width="4005" height="2490" as="geometry"/>
                </mxCell>
                <mxCell id="2" value="&lt;font style=&quot;&quot;&gt;&lt;span style=&quot;font-size: 24px;&quot;&gt;HTTP Request Lifecycle in Admin API&lt;/span&gt;&lt;br&gt;&lt;font size=&quot;3&quot;&gt;&lt;br&gt;Describes a HTTP request from the point of hitting Ghost server to the moment of returned response.&amp;nbsp;&lt;/font&gt;&lt;br&gt;&lt;/font&gt;" style="text;html=1;strokeColor=none;fillColor=none;align=center;verticalAlign=middle;whiteSpace=wrap;rounded=0;" vertex="1" parent="1">
                    <mxGeometry x="430" y="90" width="270" height="130" as="geometry"/>
                </mxCell>
                <mxCell id="24" value="/server" style="shape=module;align=left;spacingLeft=20;align=center;verticalAlign=bottom;horizontal=1;movable=0;resizable=0;rotatable=0;deletable=0;editable=0;connectable=0;fontStyle=1" vertex="1" parent="1">
                    <mxGeometry x="450" y="260" width="2670" height="1530" as="geometry"/>
                </mxCell>
                <mxCell id="62" value="Controllers" style="text;html=1;strokeColor=none;fillColor=none;align=center;verticalAlign=middle;whiteSpace=wrap;rounded=0;shadow=0;fontSize=12;" vertex="1" parent="24">
                    <mxGeometry x="1220.9166114194363" y="-6.648733552631583" width="132.39669421487605" height="60.39473684210526" as="geometry"/>
                </mxCell>
                <mxCell id="65" value="HTTP Framework" style="text;html=1;strokeColor=none;fillColor=none;align=center;verticalAlign=middle;whiteSpace=wrap;rounded=0;shadow=0;fontSize=12;" vertex="1" parent="24">
                    <mxGeometry x="665.2983734391023" y="-6.645764802631581" width="132.39669421487605" height="60.39473684210526" as="geometry"/>
                </mxCell>
                <mxCell id="35" value="&lt;div style=&quot;color: rgb(204, 204, 204); background-color: rgb(31, 31, 31); font-family: Menlo, Monaco, &amp;quot;Courier New&amp;quot;, monospace; line-height: 18px;&quot;&gt;&lt;span style=&quot;color: #9cdcfe;&quot;&gt;authAdminApi&lt;/span&gt;&lt;/div&gt;Middlewares" style="text;html=1;strokeColor=none;fillColor=none;align=center;verticalAlign=middle;whiteSpace=wrap;rounded=0;shadow=0;fontSize=12;" vertex="1" parent="24">
                    <mxGeometry x="264.7909965916631" y="-6.64576480263158" width="198.59504132231405" height="60.39473684210526" as="geometry"/>
                </mxCell>
                <mxCell id="55" value="&lt;div style=&quot;color: rgb(204, 204, 204); background-color: rgb(31, 31, 31); font-family: Menlo, Monaco, &amp;quot;Courier New&amp;quot;, monospace; line-height: 18px;&quot;&gt;&lt;a href=&quot;data:page/id,6JZK-o0tP2cHMDoMjzkM&quot;&gt;HTTP Framework&lt;/a&gt;&lt;/div&gt;" style="rounded=1;whiteSpace=wrap;html=1;shadow=0;fontSize=12;movable=1;resizable=1;rotatable=1;deletable=1;editable=1;connectable=1;" vertex="1" parent="24">
                    <mxGeometry x="606.82" y="66.95" width="264.79" height="933.05" as="geometry"/>
                </mxCell>
                <mxCell id="107" style="edgeStyle=none;html=1;fontSize=12;exitX=0;exitY=1;exitDx=0;exitDy=0;" edge="1" parent="24" source="64">
                    <mxGeometry relative="1" as="geometry">
                        <mxPoint x="870" y="639" as="targetPoint"/>
                    </mxGeometry>
                </mxCell>
                <mxCell id="250" value="return Tier Entity" style="edgeLabel;html=1;align=center;verticalAlign=middle;resizable=0;points=[];fontSize=12;" vertex="1" connectable="0" parent="107">
                    <mxGeometry x="-0.1191" y="2" relative="1" as="geometry">
                        <mxPoint x="38" y="-1" as="offset"/>
                    </mxGeometry>
                </mxCell>
                <mxCell id="64" value="&lt;div style=&quot;color: rgb(204, 204, 204); background-color: rgb(31, 31, 31); font-family: Menlo, Monaco, &amp;quot;Courier New&amp;quot;, monospace; line-height: 18px;&quot;&gt;&lt;span style=&quot;color: #9cdcfe;&quot;&gt;tiers&lt;/span&gt;.&lt;span style=&quot;color: #9cdcfe;&quot;&gt;add&lt;/span&gt;&lt;/div&gt;" style="rounded=1;whiteSpace=wrap;html=1;shadow=0;fontSize=12;" vertex="1" parent="24">
                    <mxGeometry x="1154.7205192435301" y="589.995" width="264.7977372262774" height="47.8125" as="geometry"/>
                </mxCell>
                <mxCell id="66" value="Services" style="text;html=1;strokeColor=none;fillColor=none;align=center;verticalAlign=middle;whiteSpace=wrap;rounded=0;shadow=0;fontSize=12;" vertex="1" parent="24">
                    <mxGeometry x="1629.9043975990833" y="-6.6484210526315834" width="132.39669421487605" height="60.39473684210526" as="geometry"/>
                </mxCell>
                <mxCell id="74" value="Repositories" style="text;html=1;strokeColor=none;fillColor=none;align=center;verticalAlign=middle;whiteSpace=wrap;rounded=0;shadow=0;fontSize=12;" vertex="1" parent="24">
                    <mxGeometry x="2358.0797768595044" y="6.551578947368415" width="132.39669421487605" height="60.39473684210526" as="geometry"/>
                </mxCell>
                <mxCell id="83" value="" style="edgeStyle=none;html=1;fontSize=12;" edge="1" parent="24" target="77">
                    <mxGeometry relative="1" as="geometry">
                        <mxPoint x="739.2143847801167" y="312.7312499999998" as="sourcePoint"/>
                    </mxGeometry>
                </mxCell>
                <mxCell id="84" value="" style="edgeStyle=none;html=1;fontSize=12;" edge="1" parent="24" target="78">
                    <mxGeometry relative="1" as="geometry">
                        <mxPoint x="739.2143847801167" y="416.3249999999998" as="sourcePoint"/>
                    </mxGeometry>
                </mxCell>
                <mxCell id="85" value="" style="edgeStyle=none;html=1;fontSize=12;" edge="1" parent="24" target="79">
                    <mxGeometry relative="1" as="geometry">
                        <mxPoint x="739.2143847801167" y="519.9187499999998" as="sourcePoint"/>
                    </mxGeometry>
                </mxCell>
                <mxCell id="90" style="edgeStyle=none;html=1;fontSize=12;exitX=1;exitY=0;exitDx=0;exitDy=0;entryX=0;entryY=0;entryDx=0;entryDy=0;" edge="1" parent="24" target="64">
                    <mxGeometry relative="1" as="geometry">
                        <mxPoint x="871.6110789949926" y="591.6374999999998" as="sourcePoint"/>
                    </mxGeometry>
                </mxCell>
                <mxCell id="109" style="edgeStyle=none;html=1;fontSize=12;" edge="1" parent="24" target="80">
                    <mxGeometry relative="1" as="geometry">
                        <mxPoint x="739.2143847801167" y="639.4499999999998" as="sourcePoint"/>
                    </mxGeometry>
                </mxCell>
                <mxCell id="104" style="edgeStyle=none;html=1;fontSize=12;" edge="1" parent="24" target="99">
                    <mxGeometry relative="1" as="geometry">
                        <mxPoint x="739.2143847801167" y="739.7650000000008" as="sourcePoint"/>
                    </mxGeometry>
                </mxCell>
                <mxCell id="97" value="MISS" style="edgeStyle=none;html=1;fontSize=12;entryX=0.997;entryY=0.045;entryDx=0;entryDy=0;entryPerimeter=0;" edge="1" parent="24" source="95" target="55">
                    <mxGeometry x="0.0076" relative="1" as="geometry">
                        <mxPoint x="1286.2773722627737" y="210" as="targetPoint"/>
                        <mxPoint as="offset"/>
                    </mxGeometry>
                </mxCell>
                <mxCell id="101" style="edgeStyle=none;html=1;entryX=1;entryY=0.5;entryDx=0;entryDy=0;fontSize=12;exitX=0.5;exitY=1;exitDx=0;exitDy=0;exitPerimeter=0;" edge="1" parent="24" source="95">
                    <mxGeometry relative="1" as="geometry">
                        <Array as="points">
                            <mxPoint x="1007.3181818181816" y="836"/>
                        </Array>
                        <mxPoint x="871.6110789949926" y="835.6804687500003" as="targetPoint"/>
                    </mxGeometry>
                </mxCell>
                <mxCell id="102" value="HIT" style="edgeLabel;html=1;align=center;verticalAlign=middle;resizable=0;points=[];fontSize=12;" vertex="1" connectable="0" parent="101">
                    <mxGeometry x="-0.8086" relative="1" as="geometry">
                        <mxPoint as="offset"/>
                    </mxGeometry>
                </mxCell>
                <mxCell id="95" value="cached?" style="strokeWidth=2;html=1;shape=mxgraph.flowchart.decision;whiteSpace=wrap;shadow=0;fontSize=12;" vertex="1" parent="24">
                    <mxGeometry x="946.6363636363635" y="70" width="109.93118181818181" height="79.69" as="geometry"/>
                </mxCell>
                <mxCell id="116" style="edgeStyle=none;html=1;fontSize=12;entryX=0.5;entryY=0;entryDx=0;entryDy=0;" edge="1" parent="24" source="111" target="239">
                    <mxGeometry relative="1" as="geometry"/>
                </mxCell>
                <mxCell id="178" value="create()" style="edgeStyle=none;html=1;entryX=0;entryY=1;entryDx=0;entryDy=0;fontSize=12;exitX=1;exitY=0;exitDx=0;exitDy=0;" edge="1" parent="24" source="120" target="176">
                    <mxGeometry relative="1" as="geometry">
                        <Array as="points">
                            <mxPoint x="2030" y="812"/>
                        </Array>
                    </mxGeometry>
                </mxCell>
                <mxCell id="111" value="&lt;div style=&quot;background-color: rgb(31, 31, 31); font-family: Menlo, Monaco, &amp;quot;Courier New&amp;quot;, monospace; line-height: 18px;&quot;&gt;&lt;div style=&quot;color: rgb(204, 204, 204); line-height: 18px;&quot;&gt;&lt;span style=&quot;color: #4ec9b0;&quot;&gt;TiersAPI&lt;/span&gt;&lt;/div&gt;&lt;/div&gt;" style="rounded=1;whiteSpace=wrap;html=1;shadow=0;fontSize=12;" vertex="1" parent="24">
                    <mxGeometry x="1563.7007795995842" y="589.9849999999999" width="264.7977372262774" height="47.8125" as="geometry"/>
                </mxCell>
                <mxCell id="53" value="" style="edgeStyle=none;html=1;fontSize=12;" edge="1" parent="24">
                    <mxGeometry relative="1" as="geometry">
                        <mxPoint x="364.090909090909" y="560" as="sourcePoint"/>
                    </mxGeometry>
                </mxCell>
                <mxCell id="52" value="" style="edgeStyle=none;html=1;fontSize=12;" edge="1" parent="24">
                    <mxGeometry relative="1" as="geometry">
                        <mxPoint x="364.090909090909" y="470" as="sourcePoint"/>
                    </mxGeometry>
                </mxCell>
                <mxCell id="49" value="" style="edgeStyle=none;html=1;fontSize=12;" edge="1" parent="24">
                    <mxGeometry relative="1" as="geometry">
                        <mxPoint x="364.090909090909" y="232.5" as="targetPoint"/>
                    </mxGeometry>
                </mxCell>
                <mxCell id="118" style="edgeStyle=none;html=1;entryX=0;entryY=0.5;entryDx=0;entryDy=0;fontSize=12;exitX=1;exitY=0.5;exitDx=0;exitDy=0;" edge="1" parent="24" source="115" target="117">
                    <mxGeometry relative="1" as="geometry">
                        <Array as="points"/>
                    </mxGeometry>
                </mxCell>
                <mxCell id="119" value="save Tier()" style="edgeLabel;html=1;align=center;verticalAlign=middle;resizable=0;points=[];fontSize=12;" vertex="1" connectable="0" parent="118">
                    <mxGeometry x="0.0374" y="-5" relative="1" as="geometry">
                        <mxPoint as="offset"/>
                    </mxGeometry>
                </mxCell>
                <mxCell id="248" value="" style="edgeStyle=none;html=1;fontSize=12;" edge="1" parent="24" source="115" target="247">
                    <mxGeometry relative="1" as="geometry"/>
                </mxCell>
                <mxCell id="115" value="&lt;div style=&quot;background-color: rgb(31, 31, 31); font-family: Menlo, Monaco, &amp;quot;Courier New&amp;quot;, monospace; line-height: 18px;&quot;&gt;&lt;div style=&quot;line-height: 18px;&quot;&gt;&lt;font color=&quot;#4ec9b0&quot;&gt;Save Tier&lt;/font&gt;&lt;/div&gt;&lt;/div&gt;" style="rounded=1;whiteSpace=wrap;html=1;shadow=0;fontSize=12;" vertex="1" parent="24">
                    <mxGeometry x="1563.7007795995842" y="929.9849999999999" width="264.7977372262774" height="47.8125" as="geometry"/>
                </mxCell>
                <mxCell id="255" value="🚨 create a Tier again?" style="edgeStyle=none;html=1;entryX=1;entryY=0.5;entryDx=0;entryDy=0;fontSize=12;" edge="1" parent="24" source="117" target="176">
                    <mxGeometry relative="1" as="geometry">
                        <Array as="points">
                            <mxPoint x="2430" y="620"/>
                        </Array>
                    </mxGeometry>
                </mxCell>
                <mxCell id="117" value="&lt;div style=&quot;color: rgb(204, 204, 204); background-color: rgb(31, 31, 31); font-family: Menlo, Monaco, &amp;quot;Courier New&amp;quot;, monospace; line-height: 18px;&quot;&gt;&lt;span style=&quot;color: #4ec9b0;&quot;&gt;TierRepository&lt;/span&gt;&lt;/div&gt;" style="rounded=1;whiteSpace=wrap;html=1;shadow=0;fontSize=12;" vertex="1" parent="24">
                    <mxGeometry x="2291.8825977814026" y="929.9849999999999" width="264.7977372262774" height="47.8125" as="geometry"/>
                </mxCell>
                <mxCell id="246" value="" style="edgeStyle=none;html=1;fontSize=12;" edge="1" parent="24" source="120" target="115">
                    <mxGeometry relative="1" as="geometry"/>
                </mxCell>
                <mxCell id="120" value="&lt;div style=&quot;background-color: rgb(31, 31, 31); font-family: Menlo, Monaco, &amp;quot;Courier New&amp;quot;, monospace; line-height: 18px;&quot;&gt;&lt;div style=&quot;color: rgb(204, 204, 204); line-height: 18px;&quot;&gt;&lt;span style=&quot;color: #4ec9b0;&quot;&gt;Create&amp;nbsp;&lt;/span&gt;&lt;span style=&quot;color: rgb(78, 201, 176);&quot;&gt;Tier Entity&lt;/span&gt;&lt;/div&gt;&lt;/div&gt;" style="rounded=1;whiteSpace=wrap;html=1;shadow=0;fontSize=12;" vertex="1" parent="24">
                    <mxGeometry x="1563.7007795995842" y="811.7649999999999" width="264.7977372262774" height="47.8125" as="geometry"/>
                </mxCell>
                <mxCell id="121" value="Entities" style="text;html=1;strokeColor=none;fillColor=none;align=center;verticalAlign=middle;whiteSpace=wrap;rounded=0;shadow=0;fontSize=12;" vertex="1" parent="24">
                    <mxGeometry x="2078.947049586777" y="-6.648421052631555" width="132.39669421487605" height="60.39473684210526" as="geometry"/>
                </mxCell>
                <mxCell id="179" style="edgeStyle=none;html=1;fontSize=12;exitX=0.5;exitY=1;exitDx=0;exitDy=0;entryX=1;entryY=1;entryDx=0;entryDy=0;" edge="1" parent="24" source="176" target="120">
                    <mxGeometry relative="1" as="geometry">
                        <mxPoint x="1929.681818181818" y="640" as="targetPoint"/>
                        <Array as="points">
                            <mxPoint x="2160" y="860"/>
                        </Array>
                    </mxGeometry>
                </mxCell>
                <mxCell id="254" value="return Tier instance" style="edgeLabel;html=1;align=center;verticalAlign=middle;resizable=0;points=[];fontSize=12;" vertex="1" connectable="0" parent="179">
                    <mxGeometry x="0.2442" y="-1" relative="1" as="geometry">
                        <mxPoint as="offset"/>
                    </mxGeometry>
                </mxCell>
                <mxCell id="176" value="&lt;div style=&quot;background-color: rgb(31, 31, 31); font-family: Menlo, Monaco, &amp;quot;Courier New&amp;quot;, monospace; line-height: 18px;&quot;&gt;&lt;font color=&quot;#4ec9b0&quot;&gt;Tier&lt;/font&gt;&lt;/div&gt;" style="rounded=1;whiteSpace=wrap;html=1;shadow=0;fontSize=12;" vertex="1" parent="24">
                    <mxGeometry x="2027.0862341450388" y="596.0949999999999" width="264.7977372262774" height="47.8125" as="geometry"/>
                </mxCell>
                <mxCell id="242" style="edgeStyle=none;html=1;entryX=1;entryY=1;entryDx=0;entryDy=0;fontSize=12;exitX=1;exitY=0;exitDx=0;exitDy=0;" edge="1" parent="24" source="238" target="239">
                    <mxGeometry relative="1" as="geometry">
                        <Array as="points">
                            <mxPoint x="1966.090909090909" y="410"/>
                            <mxPoint x="1966.090909090909" y="758"/>
                        </Array>
                    </mxGeometry>
                </mxCell>
                <mxCell id="238" value="&lt;div style=&quot;background-color: rgb(31, 31, 31); font-family: Menlo, Monaco, &amp;quot;Courier New&amp;quot;, monospace; line-height: 18px;&quot;&gt;&lt;div style=&quot;color: rgb(204, 204, 204); line-height: 18px;&quot;&gt;&lt;div style=&quot;line-height: 18px;&quot;&gt;&lt;span style=&quot;color: #9cdcfe;&quot;&gt;SlugService&lt;/span&gt;&lt;/div&gt;&lt;/div&gt;&lt;/div&gt;" style="rounded=1;whiteSpace=wrap;html=1;shadow=0;fontSize=12;" vertex="1" parent="24">
                    <mxGeometry x="1563.7007795995842" y="409.9949999999999" width="264.7977372262774" height="47.8125" as="geometry"/>
                </mxCell>
                <mxCell id="240" value="" style="edgeStyle=none;html=1;fontSize=12;entryX=0.5;entryY=0;entryDx=0;entryDy=0;" edge="1" parent="24" source="239" target="120">
                    <mxGeometry relative="1" as="geometry"/>
                </mxCell>
                <mxCell id="244" value="pass tier JSON" style="edgeLabel;html=1;align=center;verticalAlign=middle;resizable=0;points=[];fontSize=12;" vertex="1" connectable="0" parent="240">
                    <mxGeometry x="-0.0251" y="3" relative="1" as="geometry">
                        <mxPoint as="offset"/>
                    </mxGeometry>
                </mxCell>
                <mxCell id="241" value="&lt;div style=&quot;color: rgb(204, 204, 204); background-color: rgb(31, 31, 31); font-family: Menlo, Monaco, &amp;quot;Courier New&amp;quot;, monospace; line-height: 18px;&quot;&gt;&lt;span style=&quot;color: #dcdcaa;&quot;&gt;generate&lt;/span&gt;&lt;/div&gt;" style="edgeStyle=none;html=1;entryX=1;entryY=1;entryDx=0;entryDy=0;fontSize=12;exitX=1;exitY=0;exitDx=0;exitDy=0;" edge="1" parent="24" source="239" target="238">
                    <mxGeometry x="1" y="24" relative="1" as="geometry">
                        <Array as="points">
                            <mxPoint x="1953.9545454545453" y="710"/>
                            <mxPoint x="1953.9545454545453" y="460"/>
                        </Array>
                        <mxPoint x="-6" y="-2" as="offset"/>
                    </mxGeometry>
                </mxCell>
                <mxCell id="239" value="&lt;div style=&quot;background-color: rgb(31, 31, 31); font-family: Menlo, Monaco, &amp;quot;Courier New&amp;quot;, monospace; line-height: 18px;&quot;&gt;&lt;div style=&quot;line-height: 18px;&quot;&gt;&lt;font color=&quot;#4ec9b0&quot;&gt;Assemble Tier data&lt;/font&gt;&lt;/div&gt;&lt;/div&gt;" style="rounded=1;whiteSpace=wrap;html=1;shadow=0;fontSize=12;" vertex="1" parent="24">
                    <mxGeometry x="1563.7007795995842" y="709.9849999999999" width="264.7977372262774" height="47.8125" as="geometry"/>
                </mxCell>
                <mxCell id="249" style="edgeStyle=none;html=1;entryX=1;entryY=1;entryDx=0;entryDy=0;fontSize=12;exitX=0;exitY=0.5;exitDx=0;exitDy=0;" edge="1" parent="24" source="247" target="64">
                    <mxGeometry relative="1" as="geometry">
                        <Array as="points">
                            <mxPoint x="1419.9545454545453" y="1044"/>
                        </Array>
                    </mxGeometry>
                </mxCell>
                <mxCell id="247" value="&lt;div style=&quot;background-color: rgb(31, 31, 31); font-family: Menlo, Monaco, &amp;quot;Courier New&amp;quot;, monospace; line-height: 18px;&quot;&gt;&lt;div style=&quot;line-height: 18px;&quot;&gt;&lt;font color=&quot;#4ec9b0&quot;&gt;return Tier Entity&lt;/font&gt;&lt;/div&gt;&lt;/div&gt;" style="rounded=1;whiteSpace=wrap;html=1;shadow=0;fontSize=12;" vertex="1" parent="24">
                    <mxGeometry x="1563.7007795995842" y="1019.9849999999999" width="264.7977372262774" height="47.8125" as="geometry"/>
                </mxCell>
                <mxCell id="112" style="edgeStyle=none;html=1;fontSize=12;exitX=1;exitY=0;exitDx=0;exitDy=0;entryX=0;entryY=0;entryDx=0;entryDy=0;" edge="1" parent="24" source="64" target="111">
                    <mxGeometry relative="1" as="geometry"/>
                </mxCell>
                <mxCell id="114" value="&lt;div style=&quot;color: rgb(204, 204, 204); background-color: rgb(31, 31, 31); font-family: Menlo, Monaco, &amp;quot;Courier New&amp;quot;, monospace; line-height: 18px;&quot;&gt;&lt;span style=&quot;color: #9cdcfe;&quot;&gt;iersService&lt;/span&gt;.&lt;span style=&quot;color: #9cdcfe;&quot;&gt;api&lt;/span&gt;.&lt;span style=&quot;color: #dcdcaa;&quot;&gt;add&lt;/span&gt;&lt;/div&gt;" style="edgeLabel;html=1;align=center;verticalAlign=middle;resizable=0;points=[];fontSize=12;" vertex="1" connectable="0" parent="112">
                    <mxGeometry x="-0.1032" y="2" relative="1" as="geometry">
                        <mxPoint as="offset"/>
                    </mxGeometry>
                </mxCell>
                <mxCell id="PHDZcG9AAsjzFE-tWNF--267" value="" style="endArrow=none;dashed=1;html=1;dashPattern=1 3;strokeWidth=2;fontSize=12;" edge="1" parent="24">
                    <mxGeometry width="50" height="50" relative="1" as="geometry">
                        <mxPoint x="1940" y="1536.55" as="sourcePoint"/>
                        <mxPoint x="1940" y="6.550000000000466" as="targetPoint"/>
                        <Array as="points"/>
                    </mxGeometry>
                </mxCell>
                <mxCell id="PHDZcG9AAsjzFE-tWNF--268" value="" style="endArrow=none;dashed=1;html=1;dashPattern=1 3;strokeWidth=2;fontSize=12;" edge="1" parent="24">
                    <mxGeometry width="50" height="50" relative="1" as="geometry">
                        <mxPoint x="2280" y="1523.3500000000001" as="sourcePoint"/>
                        <mxPoint x="2280" y="-6.649999999998897" as="targetPoint"/>
                        <Array as="points"/>
                    </mxGeometry>
                </mxCell>
                <mxCell id="PHDZcG9AAsjzFE-tWNF--269" value="" style="endArrow=none;dashed=1;html=1;dashPattern=1 3;strokeWidth=2;fontSize=12;" edge="1" parent="24">
                    <mxGeometry width="50" height="50" relative="1" as="geometry">
                        <mxPoint x="1090.2700000000004" y="1530.0000000000002" as="sourcePoint"/>
                        <mxPoint x="1090" as="targetPoint"/>
                    </mxGeometry>
                </mxCell>
                <mxCell id="e52kzxB7HHPr2zK-y2Dc-262" style="edgeStyle=none;html=1;fontSize=12;entryX=-0.004;entryY=0.031;entryDx=0;entryDy=0;entryPerimeter=0;" edge="1" parent="24" source="e52kzxB7HHPr2zK-y2Dc-261" target="55">
                    <mxGeometry relative="1" as="geometry"/>
                </mxCell>
                <mxCell id="e52kzxB7HHPr2zK-y2Dc-261" value="&lt;span style=&quot;color: rgb(206, 145, 120); font-family: Menlo, Monaco, &amp;quot;Courier New&amp;quot;, monospace; background-color: rgb(31, 31, 31);&quot;&gt;&lt;a href=&quot;data:page/id,hB0m8oaUB0AHgSYHgwqg&quot;&gt;Admin API &lt;br&gt;Auth Middleware&lt;/a&gt;&lt;/span&gt;" style="rounded=1;whiteSpace=wrap;html=1;shadow=0;fontFamily=Helvetica;fontSize=12;fontColor=default;align=center;strokeColor=default;fillColor=default;" vertex="1" parent="24">
                    <mxGeometry x="290" y="65" width="140" height="60" as="geometry"/>
                </mxCell>
                <mxCell id="rng5hA5K3BwThacG6xLh-261" value="" style="endArrow=none;dashed=1;html=1;dashPattern=1 3;strokeWidth=2;fontSize=12;" edge="1" parent="24">
                    <mxGeometry width="50" height="50" relative="1" as="geometry">
                        <mxPoint x="230.26999999999998" y="1516.94" as="sourcePoint"/>
                        <mxPoint x="230" as="targetPoint"/>
                    </mxGeometry>
                </mxCell>
                <mxCell id="25" value="DB" style="shape=datastore;whiteSpace=wrap;html=1;shadow=0;fontSize=12;" vertex="1" parent="1">
                    <mxGeometry x="3160" y="820" width="100" height="122.5" as="geometry"/>
                </mxCell>
                <mxCell id="98" style="edgeStyle=none;html=1;fontSize=12;" edge="1" parent="1" source="26" target="32">
                    <mxGeometry relative="1" as="geometry">
                        <mxPoint x="314" y="355" as="targetPoint"/>
                    </mxGeometry>
                </mxCell>
                <mxCell id="105" value="POST&lt;br&gt;&lt;span style=&quot;background-color: rgb(42, 37, 47);&quot;&gt;&amp;nbsp;/admin/tiers&lt;/span&gt;" style="edgeLabel;html=1;align=center;verticalAlign=middle;resizable=0;points=[];fontSize=12;" vertex="1" connectable="0" parent="98">
                    <mxGeometry x="-0.1293" y="4" relative="1" as="geometry">
                        <mxPoint x="4" y="4" as="offset"/>
                    </mxGeometry>
                </mxCell>
                <mxCell id="26" value="Client" style="strokeWidth=2;html=1;shape=mxgraph.flowchart.start_2;whiteSpace=wrap;shadow=0;fontSize=12;" vertex="1" parent="1">
                    <mxGeometry x="200" y="320" width="70" height="70" as="geometry"/>
                </mxCell>
                <mxCell id="27" value="Client" style="strokeWidth=2;html=1;shape=mxgraph.flowchart.start_2;whiteSpace=wrap;shadow=0;fontSize=12;" vertex="1" parent="1">
                    <mxGeometry x="200" y="1060.68" width="70" height="70" as="geometry"/>
                </mxCell>
                <mxCell id="54" value="" style="edgeStyle=none;html=1;fontSize=12;" edge="1" parent="1" source="32" target="e52kzxB7HHPr2zK-y2Dc-261">
                    <mxGeometry relative="1" as="geometry">
                        <mxPoint x="717" y="355" as="targetPoint"/>
                    </mxGeometry>
                </mxCell>
                <mxCell id="32" value="&lt;span style=&quot;color: rgb(206, 145, 120); font-family: Menlo, Monaco, &amp;quot;Courier New&amp;quot;, monospace; background-color: rgb(31, 31, 31);&quot;&gt;admin api router&lt;/span&gt;" style="rounded=1;whiteSpace=wrap;html=1;shadow=0;fontFamily=Helvetica;fontSize=12;fontColor=default;align=center;strokeColor=default;fillColor=default;" vertex="1" parent="1">
                    <mxGeometry x="480" y="325" width="140" height="60" as="geometry"/>
                </mxCell>
                <mxCell id="36" value="Routing&lt;br&gt;" style="text;html=1;strokeColor=none;fillColor=none;align=center;verticalAlign=middle;whiteSpace=wrap;rounded=0;shadow=0;fontSize=12;" vertex="1" parent="1">
                    <mxGeometry x="500" y="270" width="60" height="30" as="geometry"/>
                </mxCell>
                <mxCell id="96" style="edgeStyle=none;html=1;fontSize=12;exitX=0.85;exitY=0.95;exitDx=0;exitDy=0;exitPerimeter=0;" edge="1" parent="1" source="93" target="95">
                    <mxGeometry relative="1" as="geometry"/>
                </mxCell>
                <mxCell id="93" value="Cache" style="shape=datastore;whiteSpace=wrap;html=1;shadow=0;fontSize=12;" vertex="1" parent="1">
                    <mxGeometry x="1350" y="80" width="120" height="122.5" as="geometry"/>
                </mxCell>
                <mxCell id="94" style="edgeStyle=none;html=1;entryX=0.15;entryY=0.95;entryDx=0;entryDy=0;fontSize=12;exitX=0.75;exitY=0;exitDx=0;exitDy=0;entryPerimeter=0;" edge="1" parent="1" source="55" target="93">
                    <mxGeometry relative="1" as="geometry">
                        <Array as="points">
                            <mxPoint x="1368" y="327"/>
                        </Array>
                    </mxGeometry>
                </mxCell>
                <mxCell id="100" style="edgeStyle=none;html=1;entryX=1;entryY=0.5;entryDx=0;entryDy=0;entryPerimeter=0;fontSize=12;" edge="1" parent="1" target="27">
                    <mxGeometry relative="1" as="geometry">
                        <mxPoint x="1056.8176905652408" y="1095.6804012347925" as="sourcePoint"/>
                    </mxGeometry>
                </mxCell>
                <mxCell id="106" value="JSON payload + 200 OK" style="edgeLabel;html=1;align=center;verticalAlign=middle;resizable=0;points=[];fontSize=12;" vertex="1" connectable="0" parent="100">
                    <mxGeometry x="0.0734" y="-1" relative="1" as="geometry">
                        <mxPoint as="offset"/>
                    </mxGeometry>
                </mxCell>
                <mxCell id="252" style="edgeStyle=none;html=1;entryX=0.5;entryY=1;entryDx=0;entryDy=0;entryPerimeter=0;fontSize=12;" edge="1" parent="1" target="27">
                    <mxGeometry relative="1" as="geometry">
                        <Array as="points">
                            <mxPoint x="235" y="1234"/>
                        </Array>
                        <mxPoint x="1056.8176905652408" y="1233.9228911591758" as="sourcePoint"/>
                    </mxGeometry>
                </mxCell>
                <mxCell id="253" value="Error payload + 422 ValidationError" style="edgeLabel;html=1;align=center;verticalAlign=middle;resizable=0;points=[];fontSize=12;" vertex="1" connectable="0" parent="252">
                    <mxGeometry x="-0.023" y="-3" relative="1" as="geometry">
                        <mxPoint x="39" y="5" as="offset"/>
                    </mxGeometry>
                </mxCell>
                <mxCell id="256" value="save Tier" style="edgeStyle=none;html=1;entryX=0.5;entryY=1;entryDx=0;entryDy=0;fontSize=12;exitX=1;exitY=0.5;exitDx=0;exitDy=0;" edge="1" parent="1" source="117" target="25">
                    <mxGeometry relative="1" as="geometry">
                        <Array as="points">
                            <mxPoint x="3210" y="1214"/>
                        </Array>
                    </mxGeometry>
                </mxCell>
                <mxCell id="PHDZcG9AAsjzFE-tWNF--264" value="" style="endArrow=none;dashed=1;html=1;dashPattern=1 3;strokeWidth=2;fontSize=12;" edge="1" parent="1">
                    <mxGeometry width="50" height="50" relative="1" as="geometry">
                        <mxPoint x="1003.27" y="1783.59" as="sourcePoint"/>
                        <mxPoint x="1003" y="260" as="targetPoint"/>
                    </mxGeometry>
                </mxCell>
                <mxCell id="PHDZcG9AAsjzFE-tWNF--266" value="" style="endArrow=none;dashed=1;html=1;dashPattern=1 3;strokeWidth=2;fontSize=12;" edge="1" parent="1">
                    <mxGeometry width="50" height="50" relative="1" as="geometry">
                        <mxPoint x="1960" y="1790" as="sourcePoint"/>
                        <mxPoint x="1960" y="260" as="targetPoint"/>
                        <Array as="points"/>
                    </mxGeometry>
                </mxCell>
            </root>
        </mxGraphModel>
    </diagram>
    <diagram id="hB0m8oaUB0AHgSYHgwqg" name="Admin API Auth Middleware">
        <mxGraphModel dx="1114" dy="764" grid="1" gridSize="10" guides="1" tooltips="1" connect="1" arrows="1" fold="1" page="1" pageScale="1" pageWidth="827" pageHeight="1169" math="0" shadow="0">
            <root>
                <mxCell id="0"/>
                <mxCell id="1" parent="0"/>
                <mxCell id="huxzlW6ytxG6rv-yBMdn-1" value="/ghost/core/core/server/web/api/endpoints/admin/middleware.js" style="shape=module;align=left;spacingLeft=20;align=center;verticalAlign=bottom;horizontal=1;movable=1;resizable=1;rotatable=1;deletable=1;editable=1;connectable=1;fontStyle=1;container=0;" vertex="1" parent="1">
                    <mxGeometry x="150" y="60" width="440" height="660" as="geometry"/>
                </mxCell>
                <mxCell id="huxzlW6ytxG6rv-yBMdn-4" value="&lt;div style=&quot;color: rgb(204, 204, 204); background-color: rgb(31, 31, 31); font-family: Menlo, Monaco, &amp;quot;Courier New&amp;quot;, monospace; line-height: 18px;&quot;&gt;&lt;span style=&quot;color: #9cdcfe;&quot;&gt;authAdminApi&lt;/span&gt;&lt;/div&gt;Middlewares" style="text;html=1;strokeColor=none;fillColor=none;align=center;verticalAlign=middle;whiteSpace=wrap;rounded=0;shadow=0;fontSize=12;" vertex="1" parent="1">
                    <mxGeometry x="220.0018681607046" y="89.9972902154283" width="43.88429752066116" height="35.921052631578945" as="geometry"/>
                </mxCell>
                <mxCell id="huxzlW6ytxG6rv-yBMdn-6" value="&lt;div style=&quot;color: rgb(204, 204, 204); background-color: rgb(31, 31, 31); font-family: Menlo, Monaco, &amp;quot;Courier New&amp;quot;, monospace; line-height: 18px;&quot;&gt;&lt;span style=&quot;color: rgb(240, 240, 240); font-family: Helvetica; background-color: rgb(42, 37, 47);&quot;&gt;HTTP Framework&lt;/span&gt;&lt;br&gt;&lt;/div&gt;" style="rounded=1;whiteSpace=wrap;html=1;shadow=0;fontSize=12;movable=1;resizable=1;rotatable=1;deletable=1;editable=1;connectable=1;" vertex="1" parent="1">
                    <mxGeometry x="630" y="549" width="138.51" height="35.69" as="geometry"/>
                </mxCell>
                <mxCell id="huxzlW6ytxG6rv-yBMdn-42" value="" style="edgeStyle=none;html=1;entryX=0;entryY=0.5;entryDx=0;entryDy=0;fontSize=12;exitX=1;exitY=0.5;exitDx=0;exitDy=0;" edge="1" parent="1" source="huxzlW6ytxG6rv-yBMdn-33" target="huxzlW6ytxG6rv-yBMdn-6">
                    <mxGeometry relative="1" as="geometry">
                        <Array as="points"/>
                    </mxGeometry>
                </mxCell>
                <mxCell id="9V18dZU_cbdhyu5r5zJ3-3" value="next()" style="edgeLabel;html=1;align=center;verticalAlign=middle;resizable=0;points=[];fontSize=12;" vertex="1" connectable="0" parent="huxzlW6ytxG6rv-yBMdn-42">
                    <mxGeometry x="-0.1165" relative="1" as="geometry">
                        <mxPoint as="offset"/>
                    </mxGeometry>
                </mxCell>
                <mxCell id="9V18dZU_cbdhyu5r5zJ3-4" value="" style="group" vertex="1" connectable="0" parent="1">
                    <mxGeometry x="290" y="218" width="174.59000000000003" height="366.6099999999999" as="geometry"/>
                </mxCell>
                <mxCell id="huxzlW6ytxG6rv-yBMdn-33" value="&lt;div style=&quot;color: rgb(204, 204, 204); font-family: Menlo, Monaco, &amp;quot;Courier New&amp;quot;, monospace;&quot;&gt;&lt;span style=&quot;color: rgb(220, 220, 170);&quot;&gt;authorizeAdminApi&lt;/span&gt;&lt;/div&gt;" style="rounded=1;whiteSpace=wrap;html=1;shadow=0;fontFamily=Helvetica;fontSize=12;fontColor=default;align=center;strokeColor=default;fillColor=default;" vertex="1" parent="9V18dZU_cbdhyu5r5zJ3-4">
                    <mxGeometry y="330.91999999999996" width="171.91" height="35.69" as="geometry"/>
                </mxCell>
                <mxCell id="huxzlW6ytxG6rv-yBMdn-34" value="&lt;div style=&quot;color: rgb(204, 204, 204); font-family: Menlo, Monaco, &amp;quot;Courier New&amp;quot;, monospace;&quot;&gt;&lt;span style=&quot;color: rgb(220, 220, 170); background-color: rgb(31, 31, 31);&quot;&gt;notImplemented&lt;/span&gt;&lt;br&gt;&lt;/div&gt;" style="rounded=1;whiteSpace=wrap;html=1;shadow=0;fontFamily=Helvetica;fontSize=12;fontColor=default;align=center;strokeColor=default;fillColor=default;" vertex="1" parent="9V18dZU_cbdhyu5r5zJ3-4">
                    <mxGeometry y="277.39" width="171.91" height="35.69" as="geometry"/>
                </mxCell>
                <mxCell id="huxzlW6ytxG6rv-yBMdn-35" value="&lt;div style=&quot;color: rgb(204, 204, 204); font-family: Menlo, Monaco, &amp;quot;Courier New&amp;quot;, monospace;&quot;&gt;&lt;span style=&quot;color: rgb(156, 220, 254); background-color: rgb(31, 31, 31);&quot;&gt;prettyUrls&lt;/span&gt;&lt;br&gt;&lt;/div&gt;" style="rounded=1;whiteSpace=wrap;html=1;shadow=0;fontFamily=Helvetica;fontSize=12;fontColor=default;align=center;strokeColor=default;fillColor=default;" vertex="1" parent="9V18dZU_cbdhyu5r5zJ3-4">
                    <mxGeometry y="223.86" width="171.91" height="35.69" as="geometry"/>
                </mxCell>
                <mxCell id="huxzlW6ytxG6rv-yBMdn-36" value="&lt;div style=&quot;color: rgb(204, 204, 204); font-family: Menlo, Monaco, &amp;quot;Courier New&amp;quot;, monospace;&quot;&gt;&lt;span style=&quot;color: rgb(220, 220, 170); background-color: rgb(31, 31, 31);&quot;&gt;adminSSLAndHostRedirect&lt;/span&gt;&lt;br&gt;&lt;/div&gt;" style="rounded=1;whiteSpace=wrap;html=1;shadow=0;fontFamily=Helvetica;fontSize=12;fontColor=default;align=center;strokeColor=default;fillColor=default;" vertex="1" parent="9V18dZU_cbdhyu5r5zJ3-4">
                    <mxGeometry y="170.32999999999998" width="174.59" height="35.69" as="geometry"/>
                </mxCell>
                <mxCell id="huxzlW6ytxG6rv-yBMdn-37" value="&lt;div style=&quot;color: rgb(204, 204, 204); font-family: Menlo, Monaco, &amp;quot;Courier New&amp;quot;, monospace;&quot;&gt;&lt;span style=&quot;color: rgb(156, 220, 254); background-color: rgb(31, 31, 31);&quot;&gt;cors&lt;/span&gt;&lt;br&gt;&lt;/div&gt;" style="rounded=1;whiteSpace=wrap;html=1;shadow=0;fontFamily=Helvetica;fontSize=12;fontColor=default;align=center;strokeColor=default;fillColor=default;container=1;" vertex="1" parent="9V18dZU_cbdhyu5r5zJ3-4">
                    <mxGeometry y="118.27999999999997" width="171.91" height="52.05000000000001" as="geometry">
                        <mxRectangle x="180" y="318.28" width="70" height="30" as="alternateBounds"/>
                    </mxGeometry>
                </mxCell>
                <mxCell id="huxzlW6ytxG6rv-yBMdn-38" value="&lt;div style=&quot;color: rgb(204, 204, 204); font-family: Menlo, Monaco, &amp;quot;Courier New&amp;quot;, monospace;&quot;&gt;&lt;span style=&quot;color: rgb(220, 220, 170); background-color: rgb(31, 31, 31);&quot;&gt;updateUserLastSeen&lt;/span&gt;&lt;br&gt;&lt;/div&gt;" style="rounded=1;whiteSpace=wrap;html=1;shadow=0;fontFamily=Helvetica;fontSize=12;fontColor=default;align=center;strokeColor=default;fillColor=default;" vertex="1" parent="9V18dZU_cbdhyu5r5zJ3-4">
                    <mxGeometry y="69.22000000000003" width="171.91" height="35.69" as="geometry"/>
                </mxCell>
                <mxCell id="huxzlW6ytxG6rv-yBMdn-39" value="" style="group" vertex="1" connectable="0" parent="9V18dZU_cbdhyu5r5zJ3-4">
                    <mxGeometry width="170" height="42.38" as="geometry"/>
                </mxCell>
                <mxCell id="huxzlW6ytxG6rv-yBMdn-40" value="&lt;div style=&quot;color: rgb(204, 204, 204); font-family: Menlo, Monaco, &amp;quot;Courier New&amp;quot;, monospace;&quot;&gt;&lt;span style=&quot;color: rgb(156, 220, 254); background-color: rgb(31, 31, 31);&quot;&gt;authenticateAdminApi&lt;/span&gt;&lt;br&gt;&lt;/div&gt;" style="rounded=1;whiteSpace=wrap;html=1;shadow=0;fontFamily=Helvetica;fontSize=12;fontColor=default;align=center;strokeColor=default;fillColor=default;" vertex="1" parent="huxzlW6ytxG6rv-yBMdn-39">
                    <mxGeometry y="6.691578947368422" width="160.00000000000003" height="35.68842105263158" as="geometry"/>
                </mxCell>
                <mxCell id="huxzlW6ytxG6rv-yBMdn-41" value="&lt;div style=&quot;color: rgb(204, 204, 204); font-family: Menlo, Monaco, &amp;quot;Courier New&amp;quot;, monospace;&quot;&gt;&lt;span style=&quot;color: rgb(156, 220, 254); background-color: rgb(31, 31, 31);&quot;&gt;authenticateAdminApi&lt;/span&gt;&lt;br&gt;&lt;/div&gt;" style="rounded=1;whiteSpace=wrap;html=1;shadow=0;fontFamily=Helvetica;fontSize=12;fontColor=default;align=center;strokeColor=default;fillColor=default;" vertex="1" parent="huxzlW6ytxG6rv-yBMdn-39">
                    <mxGeometry x="10.000000000000002" width="160.00000000000003" height="35.68842105263158" as="geometry"/>
                </mxCell>
                <mxCell id="huxzlW6ytxG6rv-yBMdn-43" value="" style="edgeStyle=none;html=1;fontSize=12;" edge="1" parent="9V18dZU_cbdhyu5r5zJ3-4" source="huxzlW6ytxG6rv-yBMdn-34" target="huxzlW6ytxG6rv-yBMdn-33">
                    <mxGeometry relative="1" as="geometry"/>
                </mxCell>
                <mxCell id="huxzlW6ytxG6rv-yBMdn-44" value="" style="edgeStyle=none;html=1;fontSize=12;" edge="1" parent="9V18dZU_cbdhyu5r5zJ3-4" source="huxzlW6ytxG6rv-yBMdn-35" target="huxzlW6ytxG6rv-yBMdn-34">
                    <mxGeometry relative="1" as="geometry"/>
                </mxCell>
                <mxCell id="huxzlW6ytxG6rv-yBMdn-45" value="" style="edgeStyle=none;html=1;fontSize=12;" edge="1" parent="9V18dZU_cbdhyu5r5zJ3-4" source="huxzlW6ytxG6rv-yBMdn-36" target="huxzlW6ytxG6rv-yBMdn-35">
                    <mxGeometry relative="1" as="geometry"/>
                </mxCell>
                <mxCell id="huxzlW6ytxG6rv-yBMdn-46" value="" style="edgeStyle=none;html=1;fontSize=12;" edge="1" parent="9V18dZU_cbdhyu5r5zJ3-4" source="huxzlW6ytxG6rv-yBMdn-37" target="huxzlW6ytxG6rv-yBMdn-36">
                    <mxGeometry relative="1" as="geometry"/>
                </mxCell>
                <mxCell id="huxzlW6ytxG6rv-yBMdn-47" value="" style="edgeStyle=none;html=1;fontSize=12;" edge="1" parent="9V18dZU_cbdhyu5r5zJ3-4" source="huxzlW6ytxG6rv-yBMdn-38" target="huxzlW6ytxG6rv-yBMdn-37">
                    <mxGeometry relative="1" as="geometry"/>
                </mxCell>
                <mxCell id="9V18dZU_cbdhyu5r5zJ3-2" value="" style="edgeStyle=none;html=1;fontSize=12;" edge="1" parent="9V18dZU_cbdhyu5r5zJ3-4" source="huxzlW6ytxG6rv-yBMdn-41" target="huxzlW6ytxG6rv-yBMdn-38">
                    <mxGeometry relative="1" as="geometry"/>
                </mxCell>
                <mxCell id="9V18dZU_cbdhyu5r5zJ3-6" style="edgeStyle=none;html=1;fontSize=12;" edge="1" parent="1" source="9V18dZU_cbdhyu5r5zJ3-5" target="huxzlW6ytxG6rv-yBMdn-41">
                    <mxGeometry relative="1" as="geometry"/>
                </mxCell>
                <mxCell id="9V18dZU_cbdhyu5r5zJ3-5" value="&lt;div style=&quot;line-height: 18px;&quot;&gt;&lt;div style=&quot;color: rgb(204, 204, 204); background-color: rgb(31, 31, 31); font-family: Menlo, Monaco, &amp;quot;Courier New&amp;quot;, monospace; line-height: 18px;&quot;&gt;&lt;span style=&quot;color: #ce9178;&quot;&gt;&lt;a href=&quot;data:page/id,Q2BgrTvw5muccqVEsE5E&quot;&gt;admin api router&lt;/a&gt;&lt;/span&gt;&lt;/div&gt;&lt;/div&gt;" style="rounded=1;whiteSpace=wrap;html=1;shadow=0;fontSize=12;movable=1;resizable=1;rotatable=1;deletable=1;editable=1;connectable=1;" vertex="1" parent="1">
                    <mxGeometry y="218" width="138.51" height="35.69" as="geometry"/>
                </mxCell>
            </root>
        </mxGraphModel>
    </diagram>
    <diagram id="6JZK-o0tP2cHMDoMjzkM" name="HTTP Framework">
        <mxGraphModel dx="1671" dy="1146" grid="1" gridSize="10" guides="1" tooltips="1" connect="1" arrows="1" fold="1" page="1" pageScale="1" pageWidth="827" pageHeight="1169" math="0" shadow="0">
            <root>
                <mxCell id="0"/>
                <mxCell id="1" parent="0"/>
                <mxCell id="2suGWkEOdNmY0__SYk63-33" value="" style="rounded=0;whiteSpace=wrap;html=1;shadow=0;fontSize=12;" vertex="1" parent="1">
                    <mxGeometry x="610" y="30" width="1340" height="1290" as="geometry"/>
                </mxCell>
                <mxCell id="75L8bq284HztZNnr9Ldr-1" value="ghost/api-framework/lib/http.js" style="shape=module;align=left;spacingLeft=20;align=center;verticalAlign=bottom;horizontal=1;movable=1;resizable=1;rotatable=1;deletable=1;editable=1;connectable=1;fontStyle=1;container=0;" vertex="1" parent="1">
                    <mxGeometry x="970" y="240" width="570" height="1042.19" as="geometry"/>
                </mxCell>
                <mxCell id="2suGWkEOdNmY0__SYk63-1" value="Controllers/Endpoints" style="text;html=1;strokeColor=none;fillColor=none;align=center;verticalAlign=middle;whiteSpace=wrap;rounded=0;shadow=0;fontSize=12;" vertex="1" parent="1">
                    <mxGeometry x="1689.9966114194362" y="770.0012664473684" width="132.39669421487605" height="60.39473684210526" as="geometry"/>
                </mxCell>
                <mxCell id="2suGWkEOdNmY0__SYk63-2" value="HTTP Framework" style="text;html=1;strokeColor=none;fillColor=none;align=center;verticalAlign=middle;whiteSpace=wrap;rounded=0;shadow=0;fontSize=12;" vertex="1" parent="1">
                    <mxGeometry x="1115.2983734391023" y="253.3542351973684" width="132.39669421487605" height="60.39473684210526" as="geometry"/>
                </mxCell>
                <mxCell id="2suGWkEOdNmY0__SYk63-4" value="" style="edgeStyle=none;html=1;fontSize=12;" edge="1" parent="1" source="2suGWkEOdNmY0__SYk63-5" target="2suGWkEOdNmY0__SYk63-21">
                    <mxGeometry relative="1" as="geometry"/>
                </mxCell>
                <mxCell id="2suGWkEOdNmY0__SYk63-5" value="&lt;div style=&quot;color: rgb(204, 204, 204); background-color: rgb(31, 31, 31); font-family: Menlo, Monaco, &amp;quot;Courier New&amp;quot;, monospace; line-height: 18px;&quot;&gt;create Frame&lt;/div&gt;" style="rounded=1;whiteSpace=wrap;html=1;shadow=0;fontSize=12;movable=1;resizable=1;rotatable=1;deletable=1;editable=1;connectable=1;aspect=fixed;" vertex="1" parent="1">
                    <mxGeometry x="1056.82" y="326.95" width="260" height="60" as="geometry"/>
                </mxCell>
                <mxCell id="2suGWkEOdNmY0__SYk63-6" style="edgeStyle=none;html=1;entryX=1;entryY=0.75;entryDx=0;entryDy=0;fontSize=12;exitX=0;exitY=0.75;exitDx=0;exitDy=0;" edge="1" parent="1" source="2suGWkEOdNmY0__SYk63-8" target="2suGWkEOdNmY0__SYk63-17">
                    <mxGeometry relative="1" as="geometry"/>
                </mxCell>
                <mxCell id="2suGWkEOdNmY0__SYk63-7" value="query result" style="edgeLabel;html=1;align=center;verticalAlign=middle;resizable=0;points=[];fontSize=12;" vertex="1" connectable="0" parent="2suGWkEOdNmY0__SYk63-6">
                    <mxGeometry x="-0.1191" y="2" relative="1" as="geometry">
                        <mxPoint x="60" y="-1" as="offset"/>
                    </mxGeometry>
                </mxCell>
                <mxCell id="2suGWkEOdNmY0__SYk63-8" value="&lt;div style=&quot;background-color: rgb(31, 31, 31); font-family: Menlo, Monaco, &amp;quot;Courier New&amp;quot;, monospace; line-height: 18px;&quot;&gt;&lt;font color=&quot;#9cdcfe&quot;&gt;async controller.query()&lt;/font&gt;&lt;/div&gt;" style="rounded=1;whiteSpace=wrap;html=1;shadow=0;fontSize=12;" vertex="1" parent="1">
                    <mxGeometry x="1640.00051924353" y="851.635" width="260" height="60" as="geometry"/>
                </mxCell>
                <mxCell id="2suGWkEOdNmY0__SYk63-9" value="" style="edgeStyle=none;html=1;fontSize=12;" edge="1" parent="1" source="2suGWkEOdNmY0__SYk63-10" target="2suGWkEOdNmY0__SYk63-12">
                    <mxGeometry relative="1" as="geometry"/>
                </mxCell>
                <mxCell id="2suGWkEOdNmY0__SYk63-10" value="&lt;div style=&quot;color: rgb(204, 204, 204); background-color: rgb(31, 31, 31); font-family: Menlo, Monaco, &amp;quot;Courier New&amp;quot;, monospace; line-height: 18px;&quot;&gt;&lt;div style=&quot;line-height: 18px;&quot;&gt;input validation&lt;/div&gt;&lt;/div&gt;" style="rounded=1;whiteSpace=wrap;html=1;shadow=0;fontSize=12;movable=1;resizable=1;rotatable=1;deletable=1;editable=1;connectable=1;" vertex="1" parent="1">
                    <mxGeometry x="1056.817690565241" y="524.91875" width="260" height="60" as="geometry"/>
                </mxCell>
                <mxCell id="2suGWkEOdNmY0__SYk63-11" value="" style="edgeStyle=none;html=1;fontSize=12;" edge="1" parent="1" source="2suGWkEOdNmY0__SYk63-12" target="2suGWkEOdNmY0__SYk63-14">
                    <mxGeometry relative="1" as="geometry"/>
                </mxCell>
                <mxCell id="2suGWkEOdNmY0__SYk63-12" value="&lt;div style=&quot;color: rgb(204, 204, 204); background-color: rgb(31, 31, 31); font-family: Menlo, Monaco, &amp;quot;Courier New&amp;quot;, monospace; line-height: 18px;&quot;&gt;&lt;div style=&quot;line-height: 18px;&quot;&gt;input serialisation&lt;/div&gt;&lt;/div&gt;" style="rounded=1;whiteSpace=wrap;html=1;shadow=0;fontSize=12;movable=1;resizable=1;rotatable=1;deletable=1;editable=1;connectable=1;" vertex="1" parent="1">
                    <mxGeometry x="1056.817690565241" y="628.5125" width="260" height="60" as="geometry"/>
                </mxCell>
                <mxCell id="2suGWkEOdNmY0__SYk63-13" value="" style="edgeStyle=none;html=1;fontSize=12;" edge="1" parent="1" source="2suGWkEOdNmY0__SYk63-14" target="2suGWkEOdNmY0__SYk63-17">
                    <mxGeometry relative="1" as="geometry"/>
                </mxCell>
                <mxCell id="2suGWkEOdNmY0__SYk63-14" value="&lt;div style=&quot;color: rgb(204, 204, 204); background-color: rgb(31, 31, 31); font-family: Menlo, Monaco, &amp;quot;Courier New&amp;quot;, monospace; line-height: 18px;&quot;&gt;&lt;div style=&quot;line-height: 18px;&quot;&gt;permissions&lt;/div&gt;&lt;/div&gt;" style="rounded=1;whiteSpace=wrap;html=1;shadow=0;fontSize=12;movable=1;resizable=1;rotatable=1;deletable=1;editable=1;connectable=1;" vertex="1" parent="1">
                    <mxGeometry x="1056.817690565241" y="732.10625" width="260" height="60" as="geometry"/>
                </mxCell>
                <mxCell id="2suGWkEOdNmY0__SYk63-15" style="edgeStyle=none;html=1;fontSize=12;exitX=1;exitY=0.25;exitDx=0;exitDy=0;entryX=0;entryY=0.25;entryDx=0;entryDy=0;" edge="1" parent="1" source="2suGWkEOdNmY0__SYk63-17" target="2suGWkEOdNmY0__SYk63-8">
                    <mxGeometry relative="1" as="geometry"/>
                </mxCell>
                <mxCell id="75L8bq284HztZNnr9Ldr-6" value="query()" style="edgeLabel;html=1;align=center;verticalAlign=middle;resizable=0;points=[];fontSize=12;" vertex="1" connectable="0" parent="2suGWkEOdNmY0__SYk63-15">
                    <mxGeometry x="0.305" y="-1" relative="1" as="geometry">
                        <mxPoint x="24" as="offset"/>
                    </mxGeometry>
                </mxCell>
                <mxCell id="2suGWkEOdNmY0__SYk63-16" style="edgeStyle=none;html=1;fontSize=12;" edge="1" parent="1" source="2suGWkEOdNmY0__SYk63-17" target="2suGWkEOdNmY0__SYk63-19">
                    <mxGeometry relative="1" as="geometry"/>
                </mxCell>
                <mxCell id="2suGWkEOdNmY0__SYk63-17" value="&lt;div style=&quot;color: rgb(204, 204, 204); background-color: rgb(31, 31, 31); font-family: Menlo, Monaco, &amp;quot;Courier New&amp;quot;, monospace; line-height: 18px;&quot;&gt;&lt;div style=&quot;line-height: 18px;&quot;&gt;query&lt;/div&gt;&lt;/div&gt;" style="rounded=1;whiteSpace=wrap;html=1;shadow=0;fontSize=12;movable=1;resizable=1;rotatable=1;deletable=1;editable=1;connectable=1;" vertex="1" parent="1">
                    <mxGeometry x="1056.817690565241" y="851.6375" width="260" height="60" as="geometry"/>
                </mxCell>
                <mxCell id="2suGWkEOdNmY0__SYk63-18" style="edgeStyle=none;html=1;fontSize=12;" edge="1" parent="1" source="2suGWkEOdNmY0__SYk63-19" target="2suGWkEOdNmY0__SYk63-26">
                    <mxGeometry relative="1" as="geometry"/>
                </mxCell>
                <mxCell id="2suGWkEOdNmY0__SYk63-19" value="&lt;div style=&quot;color: rgb(204, 204, 204); background-color: rgb(31, 31, 31); font-family: Menlo, Monaco, &amp;quot;Courier New&amp;quot;, monospace; line-height: 18px;&quot;&gt;&lt;div style=&quot;line-height: 18px;&quot;&gt;output serialisation&lt;/div&gt;&lt;/div&gt;" style="rounded=1;whiteSpace=wrap;html=1;shadow=0;fontSize=12;movable=1;resizable=1;rotatable=1;deletable=1;editable=1;connectable=1;" vertex="1" parent="1">
                    <mxGeometry x="1056.817690565241" y="951.9525000000001" width="260" height="60" as="geometry"/>
                </mxCell>
                <mxCell id="2suGWkEOdNmY0__SYk63-20" style="edgeStyle=none;html=1;fontSize=12;" edge="1" parent="1" source="2suGWkEOdNmY0__SYk63-21" target="2suGWkEOdNmY0__SYk63-10">
                    <mxGeometry relative="1" as="geometry"/>
                </mxCell>
                <mxCell id="2suGWkEOdNmY0__SYk63-21" value="request cache check" style="rounded=1;whiteSpace=wrap;html=1;shadow=0;fontSize=12;movable=1;resizable=1;rotatable=1;deletable=1;editable=1;connectable=1;" vertex="1" parent="1">
                    <mxGeometry x="1056.817690565241" y="419.99875000000003" width="260" height="60" as="geometry"/>
                </mxCell>
                <mxCell id="2suGWkEOdNmY0__SYk63-22" value="MISS" style="edgeStyle=none;html=1;fontSize=12;entryX=1;entryY=1;entryDx=0;entryDy=0;" edge="1" parent="1" source="2suGWkEOdNmY0__SYk63-25" target="2suGWkEOdNmY0__SYk63-21">
                    <mxGeometry x="0.0076" relative="1" as="geometry">
                        <mxPoint x="1286.2773722627737" y="210" as="targetPoint"/>
                        <mxPoint as="offset"/>
                    </mxGeometry>
                </mxCell>
                <mxCell id="2suGWkEOdNmY0__SYk63-23" style="edgeStyle=none;html=1;entryX=1;entryY=0.5;entryDx=0;entryDy=0;fontSize=12;exitX=0.5;exitY=1;exitDx=0;exitDy=0;exitPerimeter=0;" edge="1" parent="1" source="2suGWkEOdNmY0__SYk63-25" target="2suGWkEOdNmY0__SYk63-26">
                    <mxGeometry relative="1" as="geometry">
                        <Array as="points">
                            <mxPoint x="1457.3181818181815" y="1096"/>
                        </Array>
                    </mxGeometry>
                </mxCell>
                <mxCell id="2suGWkEOdNmY0__SYk63-24" value="HIT" style="edgeLabel;html=1;align=center;verticalAlign=middle;resizable=0;points=[];fontSize=12;" vertex="1" connectable="0" parent="2suGWkEOdNmY0__SYk63-23">
                    <mxGeometry x="-0.8086" relative="1" as="geometry">
                        <mxPoint as="offset"/>
                    </mxGeometry>
                </mxCell>
                <mxCell id="2suGWkEOdNmY0__SYk63-25" value="cached?" style="strokeWidth=2;html=1;shape=mxgraph.flowchart.decision;whiteSpace=wrap;shadow=0;fontSize=12;" vertex="1" parent="1">
                    <mxGeometry x="1396.6363636363635" y="440" width="109.93118181818181" height="79.69" as="geometry"/>
                </mxCell>
                <mxCell id="75L8bq284HztZNnr9Ldr-3" style="edgeStyle=none;html=1;fontSize=12;exitX=0;exitY=0.5;exitDx=0;exitDy=0;" edge="1" parent="1" source="2suGWkEOdNmY0__SYk63-26" target="75L8bq284HztZNnr9Ldr-4">
                    <mxGeometry relative="1" as="geometry"/>
                </mxCell>
                <mxCell id="2suGWkEOdNmY0__SYk63-26" value="&lt;div style=&quot;color: rgb(204, 204, 204); background-color: rgb(31, 31, 31); font-family: Menlo, Monaco, &amp;quot;Courier New&amp;quot;, monospace; line-height: 18px;&quot;&gt;&lt;div style=&quot;line-height: 18px;&quot;&gt;res.send(200)&lt;/div&gt;&lt;/div&gt;" style="rounded=1;whiteSpace=wrap;html=1;shadow=0;fontSize=12;movable=1;resizable=1;rotatable=1;deletable=1;editable=1;connectable=1;" vertex="1" parent="1">
                    <mxGeometry x="1056.817690565241" y="1065.6842187500001" width="260" height="60" as="geometry"/>
                </mxCell>
                <mxCell id="75L8bq284HztZNnr9Ldr-5" style="edgeStyle=none;html=1;entryX=0.5;entryY=1;entryDx=0;entryDy=0;fontSize=12;" edge="1" parent="1" source="2suGWkEOdNmY0__SYk63-27" target="75L8bq284HztZNnr9Ldr-4">
                    <mxGeometry relative="1" as="geometry">
                        <Array as="points">
                            <mxPoint x="873" y="1200"/>
                        </Array>
                    </mxGeometry>
                </mxCell>
                <mxCell id="2suGWkEOdNmY0__SYk63-27" value="&lt;div style=&quot;color: rgb(204, 204, 204); background-color: rgb(31, 31, 31); font-family: Menlo, Monaco, &amp;quot;Courier New&amp;quot;, monospace; line-height: 18px;&quot;&gt;&lt;div style=&quot;line-height: 18px;&quot;&gt;res.send(422)&lt;/div&gt;&lt;/div&gt;" style="rounded=1;whiteSpace=wrap;html=1;shadow=0;fontSize=12;movable=1;resizable=1;rotatable=1;deletable=1;editable=1;connectable=1;" vertex="1" parent="1">
                    <mxGeometry x="1056.817690565241" y="1170.00421875" width="260" height="60" as="geometry"/>
                </mxCell>
                <mxCell id="2suGWkEOdNmY0__SYk63-28" style="edgeStyle=none;html=1;fontSize=12;exitX=1;exitY=0.5;exitDx=0;exitDy=0;" edge="1" parent="1" source="75L8bq284HztZNnr9Ldr-7" target="2suGWkEOdNmY0__SYk63-5">
                    <mxGeometry relative="1" as="geometry">
                        <mxPoint x="880" y="355.3599546997118" as="sourcePoint"/>
                    </mxGeometry>
                </mxCell>
                <mxCell id="vVdZ9frgkqdTCMuMdfNB-1" value="next()" style="edgeLabel;html=1;align=center;verticalAlign=middle;resizable=0;points=[];fontSize=12;" vertex="1" connectable="0" parent="2suGWkEOdNmY0__SYk63-28">
                    <mxGeometry x="-0.1922" y="2" relative="1" as="geometry">
                        <mxPoint as="offset"/>
                    </mxGeometry>
                </mxCell>
                <mxCell id="2suGWkEOdNmY0__SYk63-30" style="edgeStyle=none;html=1;fontSize=12;exitX=0.85;exitY=0.95;exitDx=0;exitDy=0;exitPerimeter=0;" edge="1" parent="1" source="2suGWkEOdNmY0__SYk63-31" target="2suGWkEOdNmY0__SYk63-25">
                    <mxGeometry relative="1" as="geometry"/>
                </mxCell>
                <mxCell id="2suGWkEOdNmY0__SYk63-31" value="Cache" style="shape=datastore;whiteSpace=wrap;html=1;shadow=0;fontSize=12;" vertex="1" parent="1">
                    <mxGeometry x="1350" y="80" width="120" height="122.5" as="geometry"/>
                </mxCell>
                <mxCell id="2suGWkEOdNmY0__SYk63-32" style="edgeStyle=none;html=1;entryX=0.15;entryY=0.95;entryDx=0;entryDy=0;fontSize=12;exitX=1;exitY=0.25;exitDx=0;exitDy=0;entryPerimeter=0;" edge="1" parent="1" source="2suGWkEOdNmY0__SYk63-21" target="2suGWkEOdNmY0__SYk63-31">
                    <mxGeometry relative="1" as="geometry">
                        <Array as="points">
                            <mxPoint x="1370" y="435"/>
                        </Array>
                    </mxGeometry>
                </mxCell>
                <mxCell id="75L8bq284HztZNnr9Ldr-4" value="&lt;a href=&quot;data:page/id,Q2BgrTvw5muccqVEsE5E&quot;&gt;Client&lt;/a&gt;" style="ellipse;whiteSpace=wrap;html=1;aspect=fixed;shadow=0;fontSize=12;" vertex="1" parent="1">
                    <mxGeometry x="833.39" y="1055.68" width="80" height="80" as="geometry"/>
                </mxCell>
                <mxCell id="75L8bq284HztZNnr9Ldr-7" value="&lt;div style=&quot;color: rgb(204, 204, 204); background-color: rgb(31, 31, 31); font-family: Menlo, Monaco, &amp;quot;Courier New&amp;quot;, monospace; line-height: 18px;&quot;&gt;&lt;span style=&quot;color: rgb(206, 145, 120);&quot;&gt;&lt;a href=&quot;data:page/id,Q2BgrTvw5muccqVEsE5E&quot;&gt;admin api&amp;nbsp;&lt;/a&gt;&lt;/span&gt;&lt;/div&gt;&lt;div style=&quot;color: rgb(204, 204, 204); background-color: rgb(31, 31, 31); font-family: Menlo, Monaco, &amp;quot;Courier New&amp;quot;, monospace; line-height: 18px;&quot;&gt;&lt;span style=&quot;color: rgb(206, 145, 120);&quot;&gt;&lt;a href=&quot;data:page/id,Q2BgrTvw5muccqVEsE5E&quot;&gt;router&lt;/a&gt;&lt;/span&gt;&lt;br&gt;&lt;/div&gt;" style="ellipse;whiteSpace=wrap;html=1;shadow=0;fontFamily=Helvetica;fontSize=12;fontColor=default;align=center;strokeColor=default;fillColor=default;connectable=1;" vertex="1" parent="1">
                    <mxGeometry x="798.6" y="300.22" width="114.79" height="113.47" as="geometry"/>
                </mxCell>
                <mxCell id="O5oQlGC19SuijGUxkbTI-1" value="" style="endArrow=classic;html=1;fontSize=12;entryX=1;entryY=0.5;entryDx=0;entryDy=0;exitX=0;exitY=0.5;exitDx=0;exitDy=0;" edge="1" parent="1" source="O5oQlGC19SuijGUxkbTI-3" target="2suGWkEOdNmY0__SYk63-27">
                    <mxGeometry width="50" height="50" relative="1" as="geometry">
                        <mxPoint x="1450" y="790" as="sourcePoint"/>
                        <mxPoint x="1500" y="740" as="targetPoint"/>
                    </mxGeometry>
                </mxCell>
                <mxCell id="O5oQlGC19SuijGUxkbTI-2" value="ValidationError" style="edgeLabel;html=1;align=center;verticalAlign=middle;resizable=0;points=[];fontSize=12;" vertex="1" connectable="0" parent="O5oQlGC19SuijGUxkbTI-1">
                    <mxGeometry x="0.0393" y="-4" relative="1" as="geometry">
                        <mxPoint as="offset"/>
                    </mxGeometry>
                </mxCell>
                <mxCell id="O5oQlGC19SuijGUxkbTI-3" value="&lt;div style=&quot;background-color: rgb(31, 31, 31); font-family: Menlo, Monaco, &amp;quot;Courier New&amp;quot;, monospace; line-height: 18px;&quot;&gt;&lt;font color=&quot;#9cdcfe&quot;&gt;various component&lt;/font&gt;&lt;/div&gt;" style="rounded=1;whiteSpace=wrap;html=1;shadow=0;fontSize=12;" vertex="1" parent="1">
                    <mxGeometry x="1640.00051924353" y="1168.995" width="260" height="60" as="geometry"/>
                </mxCell>
            </root>
        </mxGraphModel>
    </diagram>
</mxfile>
